<?xml version="1.0" encoding="UTF-8" standalone="no"?>
<svg
   xmlns:dc="http://purl.org/dc/elements/1.1/"
   xmlns:cc="http://creativecommons.org/ns#"
   xmlns:rdf="http://www.w3.org/1999/02/22-rdf-syntax-ns#"
   xmlns:svg="http://www.w3.org/2000/svg"
   xmlns="http://www.w3.org/2000/svg"
   xmlns:sodipodi="http://sodipodi.sourceforge.net/DTD/sodipodi-0.dtd"
   xmlns:inkscape="http://www.inkscape.org/namespaces/inkscape"
   viewBox="0 0 422.15186 67.384573"
   version="1.1"
   id="svg3811"
   sodipodi:docname="Logo_Boersenblatt_digital_0c_weiss_ab.svg"
   width="422.15186"
   height="67.384575"
   inkscape:version="0.92.4 5da689c313, 2019-01-14">
  <metadata
     id="metadata3815">
    <rdf:RDF>
      <cc:Work
         rdf:about="">
        <dc:format>image/svg+xml</dc:format>
        <dc:type
           rdf:resource="http://purl.org/dc/dcmitype/StillImage" />
        <dc:title>Logo_Börsenblatt_digital_0c_weiss</dc:title>
      </cc:Work>
    </rdf:RDF>
  </metadata>
  <sodipodi:namedview
     pagecolor="#ffffff"
     bordercolor="#666666"
     borderopacity="1"
     objecttolerance="10"
     gridtolerance="10"
     guidetolerance="10"
     inkscape:pageopacity="0"
     inkscape:pageshadow="2"
     inkscape:window-width="1920"
     inkscape:window-height="1031"
     id="namedview3813"
     showgrid="false"
     fit-margin-top="0"
     fit-margin-left="0"
     fit-margin-right="0"
     fit-margin-bottom="0"
     inkscape:zoom="1.3521345"
     inkscape:cx="86.756208"
     inkscape:cy="72.149998"
     inkscape:window-x="0"
     inkscape:window-y="0"
     inkscape:window-maximized="1"
     inkscape:current-layer="svg3811" />
  <defs
     id="defs3763">
    <style
       id="style3761">.cls-1{fill:#fff;}</style>
  </defs>
  <title
     id="title3765">Logo_Börsenblatt_digital_0c_weiss</title>
  <path
     class="cls-1"
     d="m 112.20185,33.644573 c 1.22,-0.8 2.19,-1.65 2.19,-3.46 0,-3.35 -2.86,-5.33 -2.86,-10.83 0,-3.63 2.9,-9.47 8.91,-9.47 2.89,0 5.16,1.64 6.38,4.93 l 5.34,-4.93 a 6.43,6.43 0 0 1 6.17,6.69 8.14,8.14 0 0 1 -5.42,7.88 c 5.38,0.34 6.81,6.69 6.81,10.72 0,9.47 -8.19,15.65 -12.86,15.65 -6.26,0 -8.27,-6.41 -11.42,-6.41 a 2.57,2.57 0 0 0 -2.4,2.61 h -0.71 c 0,-2.84 2.77,-8.73 7.18,-8.34 1.3,-1.87 1.77,-4.53 1.77,-10.2 v -8.57 c 0,-4.36 -0.47,-8.16 -2.94,-8.16 -1.18,0 -2.27,1.42 -2.27,3.86 0,3.51 2.77,6.12 2.81,10.71 0,3.75 -2.06,6.07 -6.34,8 z m 13.44,1.07 c -1.38,1.93 -3.1,2.84 -4.74,4.43 5.84,2.26 6.72,7.08 10.33,7.08 1.6,0 3.57,-1.64 3.57,-5.61 0,-6 -4.24,-11.06 -6.59,-11.11 a 1.78,1.78 0 0 0 -0.93,0.22 c -0.21,2.22 -0.29,3.18 -1.64,4.99 z m 1.77,-6.86 c 2.69,-1.13 5.54,-3.51 5.54,-7.65 0,-4.14 -2.05,-5.39 -3.27,-5.39 -0.8,0 -1.6,0.51 -2.61,1.7 0.13,1.25 0.34,4.26 0.34,5.56 z"
     id="path3769"
     style="fill:#ffffff"
     inkscape:connector-curvature="0" />
  <path
     class="cls-1"
     d="m 146.47185,24.454573 c 2.94,0 5.38,-1.93 6.68,-5.22 2.69,2 7.65,4.26 7.65,15.65 0,3.52 -0.38,7.21 -2.06,9.47 -1.43,1.93 -4.24,2.78 -6.93,6.52 a 19.56,19.56 0 0 0 -8.44,-5.21 v -0.51 c 1.21,-0.46 1.8,-2 1.8,-4 v -16.7 z m -1.63,-9.64 c 0,-1.64 1.3,-2.32 3.06,-2.32 2,0 3,0.85 3,2.21 0,1.7 -1.26,2.15 -3,3.23 -1.59,-0.91 -3.06,-1.53 -3.06,-3.12 z m 5.46,26.65 a 2.25,2.25 0 0 0 1,1.76 l 2.95,2.44 a 0.76,0.76 0 0 0 0.42,0.17 c 0.75,0 0.79,-2.67 0.79,-5.9 0,-6.8 0,-14.34 -5.16,-15.42 z m 3.23,-26.65 c 0,-1.64 1.3,-2.32 3.07,-2.32 2,0 3,0.85 3,2.21 0,1.7 -1.26,2.15 -3,3.23 -1.6,-0.91 -3.07,-1.53 -3.07,-3.12 z"
     id="path3771"
     style="fill:#ffffff"
     inkscape:connector-curvature="0" />
  <path
     class="cls-1"
     d="m 172.60185,42.084573 c 0,1 1.72,2.44 2.18,2.44 0.46,0 1.73,-1 3.32,-3 v 1.93 a 75.41,75.41 0 0 0 -6,7.48 c -1.94,-2.21 -4.58,-4.65 -6.56,-5.33 v -0.56 c 1.47,-0.51 1.89,-2 1.89,-4.43 v -11.34 c 0,-2.27 -0.63,-3.51 -1.47,-3.51 -0.5,0 -1.09,0.45 -1.63,1.36 v -1.71 l 4.24,-5.72 a 9.42,9.42 0 0 1 4.07,6.24 c 0.8,-3.35 2.61,-5.9 4.12,-6.41 l 3.23,6 -3.65,4.56 -2.69,-4.48 a 26.62,26.62 0 0 0 -1,8.17 z"
     id="path3773"
     style="fill:#ffffff"
     inkscape:connector-curvature="0" />
  <path
     class="cls-1"
     d="m 193.72185,9.714573 c 0,4.08 -0.12,8.5 -3,8.5 -0.54,0 -1.3,0 -2.77,-1.64 -0.38,-0.4 -1,-1.08 -1.43,-1.08 -0.43,0 -0.92,0.57 -0.92,1.65 0,2.32 0.88,3.23 3.06,5.55 2.18,2.32 2.52,3.92 2.52,8 a 203.79,203.79 0 0 1 -2.39,29.15 h -1.37 a 404.73,404.73 0 0 1 -3.27,-42.76 c 0,-6.69 2.69,-7.37 3.74,-7.37 a 4.86,4.86 0 0 1 2.94,1.42 c 0.84,0.73 1.17,0.79 1.47,0.79 0.79,0 0.84,-1.08 0.84,-2.21 z"
     id="path3775"
     style="fill:#ffffff"
     inkscape:connector-curvature="0" />
  <path
     class="cls-1"
     d="m 202.67185,38.634573 c 0.8,4.14 2.77,5.67 4.45,5.67 1.43,0 2.48,-0.8 4.67,-3 l 0.58,1 a 71.27,71.27 0 0 0 -7.6,8.68 c -3.28,-2 -7.56,-4.37 -7.56,-15.6 0,-7.93 1.85,-10.54 5.25,-12.75 l 4.41,-2.9 5.21,11.52 z m 0.34,-15.09 c -0.51,0.8 -0.59,3 -0.59,5.56 v 7.37 l 4.49,-3.51 z"
     id="path3777"
     style="fill:#ffffff"
     inkscape:connector-curvature="0" />
  <path
     class="cls-1"
     d="m 232.79185,41.974573 c 0,1.53 0.37,2.55 1.26,2.55 0.54,0 1,-0.73 1.55,-1.47 l 0.63,0.79 -5.12,7 c -2.57,-2.1 -3.45,-3.52 -3.45,-5.67 v -16.09 a 3.36,3.36 0 0 0 -1.81,-3.45 l -2.94,2.77 v 20.68 h -5.12 v -19.75 c 0,-2.27 -1,-3.29 -1.6,-3.29 -0.6,0 -1.68,1.13 -2.18,1.76 l -0.46,-1.19 c 2.14,-2.33 3.9,-4.26 5.79,-6.58 3.41,2.78 3.66,3.8 3.66,6.46 a 50,50 0 0 0 6.38,-6.63 26.21,26.21 0 0 0 5.59,5.44 v 0.34 a 3.39,3.39 0 0 0 -2.18,3.46 z"
     id="path3779"
     style="fill:#ffffff"
     inkscape:connector-curvature="0" />
  <path
     class="cls-1"
     d="m 239.25185,12.714573 a 3.6,3.6 0 0 0 2.31,0.68 c 4.2,0 5.13,-3.23 8.74,-3.23 h 0.5 v 1.08 c -3.65,0.06 -4.45,3.12 -4.45,8 v 6.84 a 17.26,17.26 0 0 0 5.29,-6.13 c 4.25,3.8 5.25,5.68 5.25,17.07 0,4 -0.42,5.79 -1.63,7.43 -1.69,2.27 -5.93,4.37 -8.24,7 -2,-2.38 -5.08,-4.19 -7.43,-5.61 v -0.62 c 1.13,-0.46 1.63,-2 1.63,-5.84 v -18 c 0,-4.19 -1.17,-7 -2.35,-7.82 z m 7.1,29.94 a 22.87,22.87 0 0 0 4.79,3.92 c 0.29,-2.1 0.38,-7.89 0.38,-9.81 0,-5.9 -0.63,-10.15 -2.82,-10.15 a 3.91,3.91 0 0 0 -2.35,1.19 z"
     id="path3781"
     style="fill:#ffffff"
     inkscape:connector-curvature="0" />
  <path
     class="cls-1"
     d="m 271.59185,10.904573 c -2.56,0.79 -3,3.91 -3,7.37 v 23.81 c 0,1.75 0.38,2.72 1.26,2.72 0.54,0 0.92,-0.34 1.47,-1 l 0.42,0.8 a 76.3,76.3 0 0 0 -5,6.29 19.23,19.23 0 0 0 -5.34,-4.76 v -0.63 c 1.69,-0.45 2,-1.64 2,-5.5 v -19.4 c 0,-3.41 -1,-6.7 -2.27,-7.49 l 0.38,-0.85 a 3,3 0 0 0 1,0.45 4.54,4.54 0 0 0 1.34,0.17 7.35,7.35 0 0 0 3.15,-0.73 c 2.06,-1.08 2.94,-2.33 4.5,-2.33 h 0.12 z"
     id="path3783"
     style="fill:#ffffff"
     inkscape:connector-curvature="0" />
  <path
     class="cls-1"
     d="m 293.53185,46.004573 a 24.92,24.92 0 0 0 -4.41,4.93 c -2.27,-2.32 -2.73,-3.34 -3.07,-6.29 a 21.64,21.64 0 0 0 -5.88,6.23 c -3.28,-2.43 -4.58,-4.93 -4.58,-14.28 0,-3.75 0.42,-7.6 2.06,-9.81 1.51,-2 5.67,-4.14 7.22,-6.81 2.73,2.55 6,4.88 8.2,5.67 v 0.34 c -1.43,0.74 -1.94,1.76 -1.94,3.63 v 13.38 c 0,1.53 0.34,2.55 1.1,2.55 a 2.3,2.3 0 0 0 1.3,-0.62 z m -7.52,-17.75 c -2.77,-1.81 -3.87,-3.4 -4.41,-3.4 -0.54,0 -0.67,4.59 -0.67,8.33 v 3 c 0,6.07 0.37,9 2.14,9 0.88,0 1.8,-0.68 2.94,-1.76 z"
     id="path3785"
     style="fill:#ffffff"
     inkscape:connector-curvature="0" />
  <path
     class="cls-1"
     d="m 295.74185,24.284573 c 3.49,-2 5.08,-5.9 6.47,-13.78 h 1.68 v 12.58 h 4 v 3.75 h -4 v 14.45 c 0,2 0.55,3.41 1.85,3.41 0.54,0 1.22,-0.4 2,-1.42 l 0.38,1.42 c -1.93,2 -3.91,4.08 -5.75,6.35 -1.68,-2.16 -3.24,-4 -5.47,-4.94 v -0.62 c 1.56,-0.4 1.89,-1.53 1.89,-5.27 v -13.38 h -3 z"
     id="path3787"
     style="fill:#ffffff"
     inkscape:connector-curvature="0" />
  <path
     class="cls-1"
     d="m 310.15185,24.284573 c 3.48,-2 5.08,-5.9 6.47,-13.78 h 1.68 v 12.58 h 4 v 3.75 h -4 v 14.45 c 0,2 0.54,3.41 1.84,3.41 0.55,0 1.22,-0.4 2,-1.42 l 0.38,1.42 c -1.94,2 -3.91,4.08 -5.76,6.35 -1.68,-2.16 -3.23,-4 -5.46,-4.94 v -0.62 c 1.55,-0.4 1.89,-1.53 1.89,-5.27 v -13.38 h -3 z"
     id="path3789"
     style="fill:#ffffff"
     inkscape:connector-curvature="0" />
  <path
     class="cls-1"
     d="m 338.23185,59.834573 h -2.62 v -49.75 a 15.71,15.71 0 0 1 2.62,-0.18 z"
     id="path3791"
     style="fill:#ffffff"
     inkscape:connector-curvature="0" />
  <path
     class="cls-1"
     d="m 357.02185,59.824573 v -1.33 h -0.14 a 4.33,4.33 0 0 1 -3.64,1.68 c -3.15,0 -5.25,-2.34 -5.25,-9.2 0,-7.7 3,-9.77 6.44,-9.77 a 6.94,6.94 0 0 1 2.59,0.56 v -7.74 a 18.51,18.51 0 0 1 2.83,-0.24 v 26 z m 0,-15.33 a 4.32,4.32 0 0 0 -2.28,-0.67 c -2.38,0 -3.71,1.37 -3.71,7.15 0,5.11 1,6.51 3.12,6.51 a 4.13,4.13 0 0 0 2.87,-1.12 z"
     id="path3793"
     style="fill:#ffffff"
     inkscape:connector-curvature="0" />
  <path
     class="cls-1"
     d="m 366.15185,38.434573 c -1.22,0 -1.68,-0.91 -1.68,-1.92 0,-1.01 0.46,-2 1.72,-2 1.26,0 1.68,0.95 1.68,2 0,1.05 -0.46,1.92 -1.72,1.92 z m -1.4,21.39 v -18.27 h 2.84 v 18.27 z"
     id="path3795"
     style="fill:#ffffff"
     inkscape:connector-curvature="0" />
  <path
     class="cls-1"
     d="m 377.14185,67.384573 c -4.09,0 -5.91,-1.75 -5.91,-4.58 a 5.75,5.75 0 0 1 1.71,-4.06 8,8 0 0 1 -1.08,-2.42 19.36,19.36 0 0 1 1.92,-3.71 c -1,-0.77 -2,-2.2 -2,-5.14 0,-3.89 2,-6.27 5.18,-6.27 a 7.68,7.68 0 0 1 2.21,0.35 h 4.36 a 12.89,12.89 0 0 1 -0.21,2.31 l -1.89,0.17 v 0.15 a 5.64,5.64 0 0 1 0.94,3.29 c 0,4.51 -2.41,6.23 -5.07,6.23 a 6.27,6.27 0 0 1 -1.65,-0.21 7.48,7.48 0 0 0 -0.94,2.38 c 0,0.73 0.38,0.87 0.91,0.87 h 3.71 c 2.48,0 4.48,1.16 4.48,4.66 -0.05,3.78 -2.43,5.98 -6.67,5.98 z m 1.82,-7.8 h -4.16 a 4.25,4.25 0 0 0 -0.88,2.48 c 0,2 1,2.73 3.36,2.73 2.56,0 3.75,-0.84 3.75,-3.18 0,-1.72 -0.74,-2.03 -2.07,-2.03 z m -1.92,-16 c -1.51,0 -2.35,0.78 -2.35,3.86 0,3.08 0.91,3.81 2.35,3.81 1.44,0 2.41,-0.63 2.41,-3.81 0,-3.18 -0.92,-3.83 -2.41,-3.83 z"
     id="path3797"
     style="fill:#ffffff"
     inkscape:connector-curvature="0" />
  <path
     class="cls-1"
     d="m 388.41185,38.434573 c -1.22,0 -1.68,-0.91 -1.68,-1.92 0,-1.01 0.46,-2 1.72,-2 1.26,0 1.68,0.95 1.68,2 0,1.05 -0.46,1.92 -1.72,1.92 z m -1.4,21.39 v -18.27 h 2.84 v 18.27 z"
     id="path3799"
     style="fill:#ffffff"
     inkscape:connector-curvature="0" />
  <path
     class="cls-1"
     d="m 399.44185,60.174573 c -2.94,0 -4.45,-1.26 -4.45,-5.67 v -10.36 h -1.68 v -2.59 h 1.68 v -3.92 a 14.72,14.72 0 0 1 2.84,-0.56 v 4.48 h 3.53 a 16.44,16.44 0 0 1 -0.21,2.59 h -3.32 v 10.36 c 0,2.17 0.52,2.87 1.85,2.87 a 4.6,4.6 0 0 0 2,-0.59 14.74,14.74 0 0 1 0.35,2.66 5.66,5.66 0 0 1 -2.59,0.73 z"
     id="path3801"
     style="fill:#ffffff"
     inkscape:connector-curvature="0" />
  <path
     class="cls-1"
     d="m 414.31185,60.174573 a 2.63,2.63 0 0 1 -2.69,-1.64 h -0.09 a 5.66,5.66 0 0 1 -4,1.64 c -2.34,0 -4,-1.57 -4,-5.11 0,-3.71 1.75,-5.21 5,-5.39 l 2.8,-0.14 v -4.86 a 5.5,5.5 0 0 0 -2.94,-0.81 6.77,6.77 0 0 0 -3.22,0.77 15.74,15.74 0 0 1 -0.32,-2.73 9.3,9.3 0 0 1 3.64,-0.7 c 1.82,0 4.31,0.53 5.6,1.78 v 13.38 c 0,0.7 0.18,0.87 0.77,0.87 h 1.4 v 0.77 c -0.06,1.58 -0.9,2.17 -1.95,2.17 z m -3,-8.5 -2.7,0.17 c -1.36,0.11 -2.17,0.84 -2.17,3.22 0,2.07 0.88,2.59 2.14,2.59 a 4.58,4.58 0 0 0 2.73,-1 z"
     id="path3803"
     style="fill:#ffffff"
     inkscape:connector-curvature="0" />
  <path
     class="cls-1"
     d="m 419.32185,59.824573 v -25.8 a 18.19,18.19 0 0 1 2.83,-0.24 v 26 z"
     id="path3805"
     style="fill:#ffffff"
     inkscape:connector-curvature="0" />
  <g
     id="g3862"
     transform="translate(-109.6)"
     style="fill:#ffffff">
    <path
       inkscape:connector-curvature="0"
       style="fill:#ffffff"
       id="path3767"
       d="m 200.43,38.06 c 1.58,1.64 0.92,3.45 -1.5,4 l -49.12,12 c -2.79,0.68 -6.19,-0.28 -7.55,-2.13 L 110,8.11 c -1,-1.35 0.21,-2.78 2.68,-3.2 L 141.44,0 l 29.7,7.77 z"
       class="cls-1" />
    <path
       inkscape:connector-curvature="0"
       style="fill:#ffffff"
       id="path3807"
       d="m 200,45.18 -1,0.36 a 10.68,10.68 0 0 1 0,1.1 2.31,2.31 0 0 1 -1.91,1.36 L 148,60 c -2.53,0.62 -5.68,-0.25 -6.89,-1.9 L 109.6,15.23 v 3.14 l 30.45,41.45 c 1.19,1.6 3.71,2.61 6.2,2.61 a 8.46,8.46 0 0 0 2,-0.24 l 49.12,-12 A 3.49,3.49 0 0 0 200.14,48 6,6 0 0 0 200,45.18 Z"
       class="cls-1" />
  </g>
</svg>
