<svg id="Ebene_1" data-name="Ebene 1" xmlns="http://www.w3.org/2000/svg" width="463.45" height="93.39" viewBox="0 0 463.45 93.39">
  <defs>
    <style>
      .cls-1 {
        fill: #fff;
      }
    </style>
  </defs>
  <path class="cls-1" d="M135.67,43.56c1.22-.8,2.19-1.65,2.19-3.46,0-3.35-2.86-5.33-2.86-10.83,0-3.63,2.9-9.47,8.91-9.47,2.89,0,5.16,1.64,6.38,4.93l5.34-4.93a6.43,6.43,0,0,1,6.17,6.68h0a8.15,8.15,0,0,1-5.42,7.88c5.38.34,6.81,6.69,6.81,10.72,0,9.47-8.19,15.65-12.86,15.65-6.26,0-8.27-6.41-11.42-6.41a2.57,2.57,0,0,0-2.4,2.61h-.71c0-2.84,2.77-8.73,7.18-8.34,1.3-1.87,1.77-4.53,1.77-10.2V29.83c0-4.36-.47-8.16-2.94-8.16-1.18,0-2.27,1.42-2.27,3.86,0,3.51,2.77,6.12,2.81,10.71,0,3.75-2.06,6.07-6.34,8Zm13.44,1.07c-1.38,1.93-3.1,2.84-4.74,4.43,5.84,2.26,6.72,7.08,10.33,7.08,1.6,0,3.57-1.64,3.57-5.61,0-6-4.24-11.06-6.59-11.11a1.78,1.78,0,0,0-.93.22C150.54,41.86,150.46,42.82,149.11,44.63Zm1.77-6.86c2.69-1.13,5.54-3.51,5.54-7.65s-2-5.39-3.27-5.39c-.8,0-1.6.51-2.61,1.7.13,1.25.34,4.26.34,5.56Z"/>
  <path class="cls-1" d="M169.94,34.37c2.94,0,5.38-1.93,6.68-5.22,2.69,2,7.65,4.26,7.65,15.65,0,3.52-.38,7.21-2.06,9.47-1.43,1.93-4.24,2.78-6.93,6.52a19.59,19.59,0,0,0-8.44-5.21v-.51c1.21-.46,1.8-2,1.8-4V34.37Zm-1.63-9.64c0-1.64,1.3-2.32,3.06-2.32,2,0,3,.85,3,2.21,0,1.7-1.26,2.15-3,3.23C169.78,26.94,168.31,26.32,168.31,24.73Zm5.46,26.65a2.28,2.28,0,0,0,1,1.76l2.95,2.44a.74.74,0,0,0,.42.17c.75,0,.79-2.67.79-5.9,0-6.8,0-14.34-5.16-15.42ZM177,24.73c0-1.64,1.3-2.32,3.07-2.32,2,0,3,.85,3,2.21,0,1.7-1.26,2.15-3,3.23C178.47,26.94,177,26.32,177,24.73Z"/>
  <path class="cls-1" d="M196.07,52c0,1,1.72,2.44,2.18,2.44s1.73-1,3.32-3v1.93a74.42,74.42,0,0,0-6,7.48c-1.94-2.21-4.58-4.65-6.56-5.33V55c1.47-.51,1.89-2,1.89-4.43V39.19c0-2.27-.63-3.51-1.47-3.51-.5,0-1.09.45-1.63,1.36V35.33L192,29.61a9.4,9.4,0,0,1,4.07,6.24c.8-3.35,2.61-5.9,4.12-6.41l3.23,6L199.81,40l-2.69-4.48a26.85,26.85,0,0,0-1,8.17Z"/>
  <path class="cls-1" d="M217.19,19.63c0,4.08-.12,8.5-3,8.5-.54,0-1.3,0-2.77-1.64-.38-.4-1-1.08-1.43-1.08s-.92.57-.92,1.65c0,2.32.88,3.23,3.06,5.55s2.52,3.92,2.52,8a204.76,204.76,0,0,1-2.39,29.15h-1.37A405.2,405.2,0,0,1,207.62,27c0-6.69,2.69-7.37,3.74-7.37a4.87,4.87,0,0,1,2.94,1.42c.84.73,1.17.79,1.47.79.79,0,.84-1.08.84-2.21Z"/>
  <path class="cls-1" d="M226.14,48.55c.8,4.14,2.77,5.67,4.45,5.67,1.43,0,2.48-.8,4.67-3l.58,1a71.25,71.25,0,0,0-7.6,8.68c-3.28-2-7.56-4.37-7.56-15.6,0-7.93,1.85-10.54,5.25-12.75l4.41-2.9,5.21,11.52Zm.34-15.09c-.51.8-.59,3-.59,5.56v7.37l4.49-3.51Z"/>
  <path class="cls-1" d="M256.26,51.89c0,1.53.37,2.55,1.26,2.55.54,0,1-.73,1.55-1.47l.63.79-5.12,7c-2.57-2.1-3.45-3.52-3.45-5.67V39a3.36,3.36,0,0,0-1.81-3.45l-2.94,2.77V59h-5.12V39.25c0-2.27-1-3.29-1.6-3.29s-1.68,1.13-2.18,1.76L237,36.53c2.14-2.33,3.9-4.26,5.79-6.58,3.41,2.78,3.66,3.8,3.66,6.46a50,50,0,0,0,6.38-6.63,26.22,26.22,0,0,0,5.59,5.44v.34A3.39,3.39,0,0,0,256.26,39Z"/>
  <path class="cls-1" d="M262.72,22.63a3.54,3.54,0,0,0,2.31.68c4.2,0,5.13-3.23,8.74-3.23h.5v1.08c-3.65.06-4.45,3.12-4.45,8V36a17.27,17.27,0,0,0,5.29-6.13c4.25,3.8,5.25,5.68,5.25,17.07,0,4-.42,5.79-1.63,7.43-1.69,2.27-5.93,4.37-8.24,7-2-2.38-5.08-4.19-7.43-5.61v-.62c1.13-.46,1.63-2,1.63-5.84v-18c0-4.19-1.17-7-2.35-7.82Zm7.1,29.94a22.57,22.57,0,0,0,4.79,3.92c.29-2.1.38-7.89.38-9.81,0-5.9-.63-10.15-2.82-10.15a3.86,3.86,0,0,0-2.35,1.19Z"/>
  <path class="cls-1" d="M295.06,20.82c-2.56.79-3,3.91-3,7.37V52c0,1.75.38,2.72,1.26,2.72.54,0,.92-.34,1.47-1l.42.8a77.47,77.47,0,0,0-5,6.29,19.27,19.27,0,0,0-5.34-4.76v-.63c1.69-.45,2-1.64,2-5.5V30.52c0-3.41-1-6.7-2.27-7.49l.38-.85a3,3,0,0,0,1,.45,4.69,4.69,0,0,0,1.34.17,7.46,7.46,0,0,0,3.15-.73c2.06-1.08,2.94-2.33,4.5-2.33h.12Z"/>
  <path class="cls-1" d="M317,55.92a24.92,24.92,0,0,0-4.41,4.93c-2.27-2.32-2.73-3.34-3.07-6.29a21.56,21.56,0,0,0-5.88,6.23c-3.28-2.43-4.58-4.93-4.58-14.28,0-3.75.42-7.6,2.06-9.81,1.51-2,5.67-4.14,7.22-6.81,2.73,2.55,6,4.88,8.2,5.67v.34c-1.43.74-1.94,1.76-1.94,3.63V52.91c0,1.53.34,2.55,1.1,2.55a2.3,2.3,0,0,0,1.3-.62Zm-7.52-17.75c-2.77-1.81-3.87-3.4-4.41-3.4s-.67,4.59-.67,8.33v3c0,6.07.37,9,2.14,9,.88,0,1.8-.68,2.94-1.76Z"/>
  <path class="cls-1" d="M319.21,34.2c3.49-2,5.08-5.9,6.47-13.78h1.68V33h4v3.75h-4V51.2c0,2,.55,3.41,1.85,3.41.54,0,1.22-.4,2-1.42l.38,1.42c-1.93,2-3.91,4.08-5.75,6.35-1.68-2.16-3.24-4-5.47-4.94V55.4c1.56-.4,1.89-1.53,1.89-5.27V36.75h-3Z"/>
  <path class="cls-1" d="M333.62,34.2c3.48-2,5.08-5.9,6.47-13.78h1.68V33h4v3.75h-4V51.2c0,2,.54,3.41,1.84,3.41.55,0,1.22-.4,2-1.42l.38,1.42c-1.94,2-3.91,4.08-5.76,6.35-1.68-2.16-3.23-4-5.46-4.94V55.4c1.55-.4,1.89-1.53,1.89-5.27V36.75h-3Z"/>
  <path class="cls-1" d="M361.7,69.75h-2.62V20a16.41,16.41,0,0,1,2.62-.18Z"/>
  <path class="cls-1" d="M380.49,69.74V68.41h-.14a4.33,4.33,0,0,1-3.64,1.68c-3.15,0-5.25-2.34-5.25-9.2,0-7.7,3-9.77,6.44-9.77a7,7,0,0,1,2.59.56V43.94a19.19,19.19,0,0,1,2.83-.24v26Zm0-15.33a4.36,4.36,0,0,0-2.28-.67c-2.38,0-3.71,1.37-3.71,7.15,0,5.11,1,6.51,3.12,6.51a4.13,4.13,0,0,0,2.87-1.12Z"/>
  <path class="cls-1" d="M389.62,48.35c-1.22,0-1.68-.91-1.68-1.92s.46-2,1.72-2,1.68,1,1.68,2S390.88,48.35,389.62,48.35Zm-1.4,21.39V51.47h2.84V69.74Z"/>
  <path class="cls-1" d="M400.61,77.3c-4.09,0-5.91-1.75-5.91-4.58a5.73,5.73,0,0,1,1.71-4.06,8,8,0,0,1-1.08-2.42,19.18,19.18,0,0,1,1.92-3.71c-1-.77-2-2.2-2-5.14,0-3.89,2-6.27,5.18-6.27a7.91,7.91,0,0,1,2.21.35H407a12.81,12.81,0,0,1-.21,2.31L404.9,54v.15a5.64,5.64,0,0,1,.94,3.29c0,4.51-2.41,6.23-5.07,6.23a6.55,6.55,0,0,1-1.65-.21,7.31,7.31,0,0,0-.94,2.38c0,.73.38.87.91.87h3.71c2.48,0,4.48,1.16,4.48,4.66C407.23,75.1,404.85,77.3,400.61,77.3Zm1.82-7.8h-4.16a4.21,4.21,0,0,0-.88,2.48c0,2,1,2.73,3.36,2.73,2.56,0,3.75-.84,3.75-3.18C404.5,69.81,403.76,69.5,402.43,69.5Zm-1.92-16c-1.51,0-2.35.78-2.35,3.86s.91,3.81,2.35,3.81,2.41-.63,2.41-3.81-.92-3.83-2.41-3.83Z"/>
  <path class="cls-1" d="M411.88,48.35c-1.22,0-1.68-.91-1.68-1.92s.46-2,1.72-2,1.68,1,1.68,2S413.14,48.35,411.88,48.35Zm-1.4,21.39V51.47h2.84V69.74Z"/>
  <path class="cls-1" d="M422.91,70.09c-2.94,0-4.45-1.26-4.45-5.67V54.06h-1.68V51.47h1.68V47.55A14.57,14.57,0,0,1,421.3,47v4.48h3.53a16.06,16.06,0,0,1-.21,2.59H421.3V64.42c0,2.17.52,2.87,1.85,2.87a4.55,4.55,0,0,0,2-.59,14.79,14.79,0,0,1,.35,2.66A5.61,5.61,0,0,1,422.91,70.09Z"/>
  <path class="cls-1" d="M437.78,70.09a2.63,2.63,0,0,1-2.69-1.64H435a5.69,5.69,0,0,1-4,1.64c-2.34,0-4-1.57-4-5.11,0-3.71,1.75-5.21,5-5.39l2.8-.14V54.59a5.52,5.52,0,0,0-2.94-.81,6.8,6.8,0,0,0-3.22.77,15.65,15.65,0,0,1-.32-2.73,9.25,9.25,0,0,1,3.64-.7c1.82,0,4.31.53,5.6,1.78V66.28c0,.7.18.87.77.87h1.4v.77C439.67,69.5,438.83,70.09,437.78,70.09Zm-3-8.5-2.7.17c-1.36.11-2.17.84-2.17,3.22,0,2.07.88,2.59,2.14,2.59a4.62,4.62,0,0,0,2.73-1Z"/>
  <path class="cls-1" d="M442.79,69.74V43.94a19.19,19.19,0,0,1,2.83-.24v26Z"/>
  <g>
    <path class="cls-1" d="M113.18,54.64c1.47,1.52.86,3.2-1.39,3.72L66.1,69.52c-2.59.63-5.75-.26-7-2l-30-40.75c-.93-1.25.19-2.58,2.49-3l26.75-4.56,27.62,7.22Z"/>
    <path class="cls-1" d="M112.78,61.26l-.93.33a8.68,8.68,0,0,1,0,1,2.15,2.15,0,0,1-1.78,1.27L64.42,75c-2.35.58-5.28-.23-6.41-1.77L28.71,33.4v2.92L57,74.87a7.39,7.39,0,0,0,5.76,2.43,7.76,7.76,0,0,0,1.86-.22l45.68-11.16a3.26,3.26,0,0,0,2.58-2A5.53,5.53,0,0,0,112.78,61.26Z"/>
  </g>
</svg>
