<svg xmlns="http://www.w3.org/2000/svg" viewBox="0 0 310.62 144.3"><defs><style>.cls-1{fill:#fff;}</style></defs><title>Logo_Börsenblatt_digital_0c_weiss</title><g id="Ebene_2" data-name="Ebene 2"><g id="Entwurf_3" data-name="Entwurf 3"><path class="cls-1" d="M200.43,38.06c1.58,1.64.92,3.45-1.5,4l-49.12,12c-2.79.68-6.19-.28-7.55-2.13L110,8.11c-1-1.35.21-2.78,2.68-3.2L141.44,0l29.7,7.77,29.29,30.29Z"/><path class="cls-1" d="M.67,110.56c1.22-.8,2.19-1.65,2.19-3.46,0-3.35-2.86-5.33-2.86-10.83,0-3.63,2.9-9.47,8.91-9.47,2.89,0,5.16,1.64,6.38,4.93l5.34-4.93a6.43,6.43,0,0,1,6.17,6.69,8.14,8.14,0,0,1-5.42,7.88c5.38.34,6.81,6.69,6.81,10.72,0,9.47-8.19,15.65-12.86,15.65-6.26,0-8.27-6.41-11.42-6.41a2.57,2.57,0,0,0-2.4,2.61H.8c0-2.84,2.77-8.73,7.18-8.34,1.3-1.87,1.77-4.53,1.77-10.2V96.83c0-4.36-.47-8.16-2.94-8.16-1.18,0-2.27,1.42-2.27,3.86,0,3.51,2.77,6.12,2.81,10.71,0,3.75-2.06,6.07-6.34,8Zm13.44,1.07c-1.38,1.93-3.1,2.84-4.74,4.43,5.84,2.26,6.72,7.08,10.33,7.08,1.6,0,3.57-1.64,3.57-5.61,0-6-4.24-11.06-6.59-11.11a1.78,1.78,0,0,0-.93.22C15.54,108.86,15.46,109.82,14.11,111.63Zm1.77-6.86c2.69-1.13,5.54-3.51,5.54-7.65s-2.05-5.39-3.27-5.39c-.8,0-1.6.51-2.61,1.7.13,1.25.34,4.26.34,5.56Z"/><path class="cls-1" d="M34.94,101.37c2.94,0,5.38-1.93,6.68-5.22,2.69,2,7.65,4.26,7.65,15.65,0,3.52-.38,7.21-2.06,9.47-1.43,1.93-4.24,2.78-6.93,6.52a19.56,19.56,0,0,0-8.44-5.21v-.51c1.21-.46,1.8-2,1.8-4V101.37Zm-1.63-9.64c0-1.64,1.3-2.32,3.06-2.32,2,0,3,.85,3,2.21,0,1.7-1.26,2.15-3,3.23C34.78,93.94,33.31,93.32,33.31,91.73Zm5.46,26.65a2.25,2.25,0,0,0,1,1.76l2.95,2.44a.76.76,0,0,0,.42.17c.75,0,.79-2.67.79-5.9,0-6.8,0-14.34-5.16-15.42ZM42,91.73c0-1.64,1.3-2.32,3.07-2.32,2,0,3,.85,3,2.21,0,1.7-1.26,2.15-3,3.23C43.47,93.94,42,93.32,42,91.73Z"/><path class="cls-1" d="M61.07,119c0,1,1.72,2.44,2.18,2.44s1.73-1,3.32-3v1.93a75.41,75.41,0,0,0-6,7.48c-1.94-2.21-4.58-4.65-6.56-5.33v-.56c1.47-.51,1.89-2,1.89-4.43V106.19c0-2.27-.63-3.51-1.47-3.51-.5,0-1.09.45-1.63,1.36v-1.71l4.24-5.72a9.42,9.42,0,0,1,4.07,6.24c.8-3.35,2.61-5.9,4.12-6.41l3.23,6L64.81,107l-2.69-4.48a26.62,26.62,0,0,0-1,8.17Z"/><path class="cls-1" d="M82.19,86.63c0,4.08-.12,8.5-3,8.5-.54,0-1.3,0-2.77-1.64-.38-.4-1-1.08-1.43-1.08s-.92.57-.92,1.65c0,2.32.88,3.23,3.06,5.55s2.52,3.92,2.52,8a203.79,203.79,0,0,1-2.39,29.15H75.89A404.73,404.73,0,0,1,72.62,94c0-6.69,2.69-7.37,3.74-7.37a4.86,4.86,0,0,1,2.94,1.42c.84.73,1.17.79,1.47.79.79,0,.84-1.08.84-2.21Z"/><path class="cls-1" d="M91.14,115.55c.8,4.14,2.77,5.67,4.45,5.67,1.43,0,2.48-.8,4.67-3l.58,1a71.27,71.27,0,0,0-7.6,8.68c-3.28-2-7.56-4.37-7.56-15.6,0-7.93,1.85-10.54,5.25-12.75l4.41-2.9,5.21,11.52Zm.34-15.09c-.51.8-.59,3-.59,5.56v7.37l4.49-3.51Z"/><path class="cls-1" d="M121.26,118.89c0,1.53.37,2.55,1.26,2.55.54,0,1-.73,1.55-1.47l.63.79-5.12,7c-2.57-2.1-3.45-3.52-3.45-5.67V106a3.36,3.36,0,0,0-1.81-3.45l-2.94,2.77V126h-5.12V106.25c0-2.27-1-3.29-1.6-3.29s-1.68,1.13-2.18,1.76l-.46-1.19c2.14-2.33,3.9-4.26,5.79-6.58,3.41,2.78,3.66,3.8,3.66,6.46a50,50,0,0,0,6.38-6.63,26.21,26.21,0,0,0,5.59,5.44v.34a3.39,3.39,0,0,0-2.18,3.46Z"/><path class="cls-1" d="M127.72,89.63a3.6,3.6,0,0,0,2.31.68c4.2,0,5.13-3.23,8.74-3.23h.5v1.08c-3.65.06-4.45,3.12-4.45,8V103a17.26,17.26,0,0,0,5.29-6.13c4.25,3.8,5.25,5.68,5.25,17.07,0,4-.42,5.79-1.63,7.43-1.69,2.27-5.93,4.37-8.24,7-2-2.38-5.08-4.19-7.43-5.61v-.62c1.13-.46,1.63-2,1.63-5.84v-18c0-4.19-1.17-7-2.35-7.82Zm7.1,29.94a22.87,22.87,0,0,0,4.79,3.92c.29-2.1.38-7.89.38-9.81,0-5.9-.63-10.15-2.82-10.15a3.91,3.91,0,0,0-2.35,1.19Z"/><path class="cls-1" d="M160.06,87.82c-2.56.79-3,3.91-3,7.37V119c0,1.75.38,2.72,1.26,2.72.54,0,.92-.34,1.47-1l.42.8a76.3,76.3,0,0,0-5,6.29,19.23,19.23,0,0,0-5.34-4.76v-.63c1.69-.45,2-1.64,2-5.5V97.52c0-3.41-1-6.7-2.27-7.49l.38-.85a3,3,0,0,0,1,.45,4.54,4.54,0,0,0,1.34.17,7.35,7.35,0,0,0,3.15-.73c2.06-1.08,2.94-2.33,4.5-2.33h.12Z"/><path class="cls-1" d="M182,122.92a24.92,24.92,0,0,0-4.41,4.93c-2.27-2.32-2.73-3.34-3.07-6.29a21.64,21.64,0,0,0-5.88,6.23c-3.28-2.43-4.58-4.93-4.58-14.28,0-3.75.42-7.6,2.06-9.81,1.51-2,5.67-4.14,7.22-6.81,2.73,2.55,6,4.88,8.2,5.67v.34c-1.43.74-1.94,1.76-1.94,3.63v13.38c0,1.53.34,2.55,1.1,2.55a2.3,2.3,0,0,0,1.3-.62Zm-7.52-17.75c-2.77-1.81-3.87-3.4-4.41-3.4s-.67,4.59-.67,8.33v3c0,6.07.37,9,2.14,9,.88,0,1.8-.68,2.94-1.76Z"/><path class="cls-1" d="M184.21,101.2c3.49-2,5.08-5.9,6.47-13.78h1.68V100h4v3.75h-4v14.45c0,2,.55,3.41,1.85,3.41.54,0,1.22-.4,2-1.42l.38,1.42c-1.93,2-3.91,4.08-5.75,6.35-1.68-2.16-3.24-4-5.47-4.94v-.62c1.56-.4,1.89-1.53,1.89-5.27V103.75h-3Z"/><path class="cls-1" d="M198.62,101.2c3.48-2,5.08-5.9,6.47-13.78h1.68V100h4v3.75h-4v14.45c0,2,.54,3.41,1.84,3.41.55,0,1.22-.4,2-1.42l.38,1.42c-1.94,2-3.91,4.08-5.76,6.35-1.68-2.16-3.23-4-5.46-4.94v-.62c1.55-.4,1.89-1.53,1.89-5.27V103.75h-3Z"/><path class="cls-1" d="M226.7,136.75h-2.62V87a15.71,15.71,0,0,1,2.62-.18Z"/><path class="cls-1" d="M245.49,136.74v-1.33h-.14a4.33,4.33,0,0,1-3.64,1.68c-3.15,0-5.25-2.34-5.25-9.2,0-7.7,3-9.77,6.44-9.77a6.94,6.94,0,0,1,2.59.56v-7.74a18.51,18.51,0,0,1,2.83-.24v26Zm0-15.33a4.32,4.32,0,0,0-2.28-.67c-2.38,0-3.71,1.37-3.71,7.15,0,5.11,1,6.51,3.12,6.51a4.13,4.13,0,0,0,2.87-1.12Z"/><path class="cls-1" d="M254.62,115.35c-1.22,0-1.68-.91-1.68-1.92s.46-2,1.72-2,1.68.95,1.68,2S255.88,115.35,254.62,115.35Zm-1.4,21.39V118.47h2.84v18.27Z"/><path class="cls-1" d="M265.61,144.3c-4.09,0-5.91-1.75-5.91-4.58a5.75,5.75,0,0,1,1.71-4.06,8,8,0,0,1-1.08-2.42,19.36,19.36,0,0,1,1.92-3.71c-1-.77-2-2.2-2-5.14,0-3.89,2-6.27,5.18-6.27a7.68,7.68,0,0,1,2.21.35H272a12.89,12.89,0,0,1-.21,2.31l-1.89.17v.15a5.64,5.64,0,0,1,.94,3.29c0,4.51-2.41,6.23-5.07,6.23a6.27,6.27,0,0,1-1.65-.21,7.48,7.48,0,0,0-.94,2.38c0,.73.38.87.91.87h3.71c2.48,0,4.48,1.16,4.48,4.66C272.23,142.1,269.85,144.3,265.61,144.3Zm1.82-7.8h-4.16a4.25,4.25,0,0,0-.88,2.48c0,2,1,2.73,3.36,2.73,2.56,0,3.75-.84,3.75-3.18C269.5,136.81,268.76,136.5,267.43,136.5Zm-1.92-16c-1.51,0-2.35.78-2.35,3.86s.91,3.81,2.35,3.81,2.41-.63,2.41-3.81S267,120.53,265.51,120.53Z"/><path class="cls-1" d="M276.88,115.35c-1.22,0-1.68-.91-1.68-1.92s.46-2,1.72-2,1.68.95,1.68,2S278.14,115.35,276.88,115.35Zm-1.4,21.39V118.47h2.84v18.27Z"/><path class="cls-1" d="M287.91,137.09c-2.94,0-4.45-1.26-4.45-5.67V121.06h-1.68v-2.59h1.68v-3.92a14.72,14.72,0,0,1,2.84-.56v4.48h3.53a16.44,16.44,0,0,1-.21,2.59H286.3v10.36c0,2.17.52,2.87,1.85,2.87a4.6,4.6,0,0,0,2-.59,14.74,14.74,0,0,1,.35,2.66A5.66,5.66,0,0,1,287.91,137.09Z"/><path class="cls-1" d="M302.78,137.09a2.63,2.63,0,0,1-2.69-1.64H300a5.66,5.66,0,0,1-4,1.64c-2.34,0-4-1.57-4-5.11,0-3.71,1.75-5.21,5-5.39l2.8-.14v-4.86a5.5,5.5,0,0,0-2.94-.81,6.77,6.77,0,0,0-3.22.77,15.74,15.74,0,0,1-.32-2.73,9.3,9.3,0,0,1,3.64-.7c1.82,0,4.31.53,5.6,1.78v13.38c0,.7.18.87.77.87h1.4v.77C304.67,136.5,303.83,137.09,302.78,137.09Zm-3-8.5-2.7.17c-1.36.11-2.17.84-2.17,3.22,0,2.07.88,2.59,2.14,2.59a4.58,4.58,0,0,0,2.73-1Z"/><path class="cls-1" d="M307.79,136.74v-25.8a18.19,18.19,0,0,1,2.83-.24v26Z"/><path class="cls-1" d="M200,45.18l-1,.36a10.68,10.68,0,0,1,0,1.1A2.31,2.31,0,0,1,197.09,48L148,60c-2.53.62-5.68-.25-6.89-1.9L109.6,15.23v3.14l30.45,41.45c1.19,1.6,3.71,2.61,6.2,2.61a8.46,8.46,0,0,0,2-.24l49.12-12A3.49,3.49,0,0,0,200.14,48,6,6,0,0,0,200,45.18Z"/></g></g></svg>