<?xml version="1.0" encoding="UTF-8" standalone="no"?><!DOCTYPE svg PUBLIC "-//W3C//DTD SVG 1.1//EN" "http://www.w3.org/Graphics/SVG/1.1/DTD/svg11.dtd"><svg width="60px" height="60px" version="1.1" xmlns="http://www.w3.org/2000/svg" xmlns:xlink="http://www.w3.org/1999/xlink" xml:space="preserve" xmlns:serif="http://www.serif.com/" style="fill-rule:evenodd;clip-rule:evenodd;stroke-linejoin:round;stroke-miterlimit:2;"><g transform="matrix(1,0,0,1,-66,0)"><g id="Home" transform="matrix(0.075,0,0,0.075,66,0)"><rect x="0" y="0" width="800" height="800" style="fill:none;"/><clipPath id="_clip1"><rect x="0" y="0" width="800" height="800"/></clipPath><g clip-path="url(#_clip1)"><g transform="matrix(1.14286,0,0,1.14286,-331.429,-57.1429)"><rect x="290" y="50" width="700" height="700" style="fill:white;fill-rule:nonzero;"/></g><g transform="matrix(2.37037,0,0,0.266667,-1309.63,-40)"><rect x="665" y="150" width="225" height="500" style="fill:rgb(185,185,185);"/></g><g transform="matrix(2.37037,0,0,0.266667,-1309.63,120)"><rect x="665" y="150" width="225" height="500" style="fill:rgb(185,185,185);"/></g><g transform="matrix(2.37037,0,0,0.266667,-1309.63,280)"><rect x="665" y="150" width="225" height="500" style="fill:rgb(185,185,185);"/></g><g transform="matrix(2.37037,0,0,0.266667,-1309.63,440)"><rect x="665" y="150" width="225" height="500" style="fill:rgb(185,185,185);"/></g><g transform="matrix(2.37037,0,0,0.266667,-1309.63,600)"><rect x="665" y="150" width="225" height="500" style="fill:rgb(185,185,185);"/></g><g transform="matrix(0.948148,0,0,1.6,-630.519,-240)"><rect x="665" y="150" width="225" height="500" style="fill:rgb(185,185,185);"/></g></g></g></g></svg>