<svg xmlns="http://www.w3.org/2000/svg" viewBox="0 0 91.69 62.43"><defs><style>.cls-1{fill:#e3000b;}</style></defs><title>Favicon</title><g id="Ebene_2" data-name="Ebene 2"><g id="Entwurf_2b" data-name="Entwurf 2b"><path class="cls-1" d="M90.83,38.06c1.58,1.64.93,3.45-1.49,4l-49.12,12c-2.79.68-6.19-.28-7.56-2.13L.35,8.11C-.65,6.76.57,5.33,3,4.91L31.84,0,61.55,7.77,90.83,38.06Z"/><path class="cls-1" d="M90.37,45.18l-1,.36s0,1,0,1.1A2.3,2.3,0,0,1,87.49,48L38.37,60c-2.52.62-5.68-.25-6.89-1.9L0,15.23v3.14L30.46,59.82c1.18,1.6,3.71,2.61,6.2,2.61a8.58,8.58,0,0,0,2-.24l49.11-12A3.49,3.49,0,0,0,90.54,48,6,6,0,0,0,90.37,45.18Z"/></g></g></svg>