<?xml version="1.0" encoding="UTF-8" standalone="no"?><!DOCTYPE svg PUBLIC "-//W3C//DTD SVG 1.1//EN" "http://www.w3.org/Graphics/SVG/1.1/DTD/svg11.dtd"><svg width="60px" height="60px" version="1.1" xmlns="http://www.w3.org/2000/svg" xmlns:xlink="http://www.w3.org/1999/xlink" xml:space="preserve" xmlns:serif="http://www.serif.com/" style="fill-rule:evenodd;clip-rule:evenodd;stroke-linejoin:round;stroke-miterlimit:2;"><g id="Container_2columns" transform="matrix(1,0,0,1,-200,-40)"><rect x="200" y="40" width="60" height="60" style="fill:none;"/><g transform="matrix(0.0857143,0,0,0.0857143,175.143,35.7143)"><rect x="290" y="50" width="700" height="700" style="fill:white;fill-rule:nonzero;"/></g><g transform="matrix(0.0857143,0,0,0.0857143,175.143,35.7143)"><path d="M290,50L290,750L990,750L990,50L290,50ZM340,100L940,100L940,700L340,700L340,100Z" style="fill:rgb(153,153,153);fill-rule:nonzero;"/></g><g transform="matrix(0.0857143,0,0,0.0857143,175.143,35.7143)"><rect x="390" y="150" width="225" height="500" style="fill:rgb(185,185,185);"/></g><g transform="matrix(0.0857143,0,0,0.0857143,175.143,35.7143)"><rect x="665" y="150" width="225" height="500" style="fill:rgb(185,185,185);"/></g></g></svg>